<svg width="336" height="521" viewBox="0 0 336 521" fill="none" xmlns="http://www.w3.org/2000/svg">
<path d="M228.747 126.224L184.748 109.573L184.196 109.356C184.196 109.356 184.356 108.2 184.487 106.465C184.763 102.967 184.908 97.2725 183.252 95.3501C180.797 92.4593 173.854 94.8876 167.071 91.7944C160.287 88.7012 147.751 94.2371 147.751 94.2371C147.751 94.2371 138.687 92.5749 134.678 99.0793C132.645 104.326 133.342 112.088 133.342 112.088L132.514 112.377C127.27 114.329 98.7419 125.01 92.7137 129.303C86.0465 134.001 78.6674 182.234 76.2997 196.4C73.9321 210.565 69.7196 223.328 71.8549 228.199C73.9901 233.07 104.639 256.558 122.273 262.614C139.908 268.671 202.441 266.951 202.441 266.951C202.441 266.951 203.457 266.676 205.273 266.098C215.848 262.716 253.368 248.753 273.282 215.971C273.311 216.028 254.021 153.109 228.747 126.224ZM109.869 207.356C106.629 209.64 108.416 218.486 108.416 218.486L102.911 213.658L116.739 179.821L122.637 205.838C122.637 205.838 113.108 205.087 109.869 207.356ZM220.496 228.849C218.971 229.63 224.854 213.369 222.065 209.683C219.276 205.997 210.866 206.344 210.866 206.344L211.577 201.907L216.56 176.467L218.215 174.516C218.215 174.516 235.327 203.699 238.392 213.99C238.392 214.019 219.741 228.849 220.496 228.849Z" fill="#EBA417"/>
<path d="M145.674 20.6941L122.956 44.6881C122.956 44.6881 119.833 47.4488 121.068 54.4013C122.303 61.3538 125.208 67.4101 127.401 67.8148C129.138 68.1173 130.897 68.272 132.659 68.2773C132.659 68.2773 137.526 78.7711 140.983 82.8906C140.983 82.8906 142.174 99.0938 141.535 103.589C141.535 103.589 149.698 110.686 157.382 111.582C165.066 112.478 176.934 100.77 176.934 100.77L179.839 86.4319C179.839 86.4319 186.811 75.9092 187.276 73.1051C187.741 70.301 190.936 71.0236 192.505 69.636C194.074 68.2484 197.691 62.0765 198.315 56.237C198.94 50.3975 198.955 43.6907 192.142 45.6565C186.23 44.081 189.934 31.6504 189.934 31.6504L179.548 22.5442L145.674 20.6941Z" fill="#E1E1E6"/>
<path opacity="0.5" d="M184.748 109.573C184.406 110.466 184.013 111.34 183.572 112.189C179.824 119.214 163.497 132.613 163.497 132.613L158.559 117.508L155.857 132.613C150.41 130.243 133.792 115.918 133.792 115.918C133.792 115.918 133.226 114.574 132.543 112.478L133.371 112.189C133.371 112.189 132.674 104.37 134.707 99.1805C138.687 92.6761 147.781 94.3383 147.781 94.3383C147.781 94.3383 160.316 88.8024 167.1 91.8956C173.883 94.9888 180.826 92.5894 183.281 95.4513C185.736 98.3132 184.225 109.414 184.225 109.414L184.748 109.573Z" fill="#E1E1E6"/>
<path opacity="0.2" d="M228.747 126.224L184.748 109.573L184.196 109.356C184.196 109.356 184.356 108.2 184.487 106.465L183.572 112.146L177.064 120.934C184.021 123.483 190.812 126.456 197.4 129.838C200.554 131.519 203.127 134.105 204.785 137.26C206.443 140.415 207.109 143.993 206.697 147.53L198.591 216.549L195.265 255.734L205.302 266.098C215.877 262.716 253.397 248.753 273.311 215.971C273.311 216.028 254.021 153.109 228.747 126.224ZM220.496 228.849C218.971 229.63 224.854 213.369 222.065 209.683C219.276 205.997 210.865 206.344 210.865 206.344L211.577 201.907L216.56 176.467L218.215 174.516C218.215 174.516 235.327 203.699 238.392 213.99C238.392 214.019 219.741 228.849 220.496 228.849Z" fill="black"/>
<path opacity="0.2" d="M125.556 209.683L118.714 186.932C118.714 186.932 106.44 145.289 98.0299 135.027L100.238 164.311C100.238 164.311 92.975 199.29 86.3367 209.683C79.6985 220.076 78.2169 222.692 86.3367 222.692C94.4566 222.692 114.226 238.36 114.226 238.36L112.701 225.351L125.556 209.683ZM108.314 218.486L102.809 213.658L116.637 179.821L122.535 205.838C122.535 205.838 113.064 205.13 109.825 207.399C106.586 209.669 108.314 218.486 108.314 218.486Z" fill="black"/>
<path d="M140.983 82.8906C140.983 82.8906 142.234 95.1622 140.983 100.77" stroke="#313B40" stroke-width="1.10311" stroke-linecap="round" stroke-linejoin="round"/>
<path d="M178.197 99.1227C178.211 95.1767 178.669 91.2447 179.563 87.4003" stroke="#313B40" stroke-width="1.10311" stroke-linecap="round" stroke-linejoin="round"/>
<path d="M181.495 29.8436C181.495 29.8436 188.961 39.1666 188.569 46.2203C188.177 53.2739 187.625 61.6285 187.813 69.8096C188.002 77.9906 174.61 95.1333 167.724 96.651C160.839 98.1687 154.913 98.559 150.511 94.1793C146.11 89.7997 141.709 83.7145 135.986 75.9092C130.263 68.104 131.628 50.9757 131.628 50.9757" stroke="#313B40" stroke-width="1.10311" stroke-linecap="round" stroke-linejoin="round"/>
<path d="M163.512 57.4945C163.057 60.0559 162.863 62.6563 162.931 65.2564C162.781 67.4478 163.466 69.615 164.848 71.3272C165.676 72.1656 166.868 72.8449 167.027 74.0013C167.023 74.5218 166.878 75.0315 166.607 75.4768C166.336 75.922 165.949 76.2861 165.488 76.5307C164.556 76.9983 163.658 77.5296 162.8 78.1207" stroke="#313B40" stroke-width="1.10311" stroke-linecap="round" stroke-linejoin="round"/>
<path d="M151.703 79.0169C151.703 79.0169 152.56 84.5529 160.011 85.7092" stroke="#313B40" stroke-width="1.10311" stroke-linecap="round" stroke-linejoin="round"/>
<path d="M152.472 61.7151C152.472 63.3195 151.775 64.606 150.918 64.606C150.061 64.606 149.364 63.3195 149.364 61.7151C149.364 60.1107 150.061 58.8243 150.918 58.8243C151.775 58.8243 152.472 60.1252 152.472 61.7151Z" fill="#313B40"/>
<path d="M174.711 62.4089C174.711 64.0133 174.014 65.2998 173.157 65.2998C172.3 65.2998 171.603 63.9989 171.603 62.4089C171.603 60.8189 172.3 59.5181 173.157 59.5181C174.014 59.5181 174.711 60.8045 174.711 62.4089Z" fill="#313B40"/>
<path d="M170.223 55.3993C170.223 55.3993 177.486 48.1705 183.572 56.2378" stroke="#313B40" stroke-width="2.20621" stroke-linecap="round" stroke-linejoin="round"/>
<path d="M154.927 55.5437C154.927 55.5437 150.337 50.4257 143.103 55.5437" stroke="#313B40" stroke-width="2.20621" stroke-linecap="round" stroke-linejoin="round"/>
<path d="M132.659 67.8148C132.659 67.8148 126.762 69.8818 125.193 65.3143C123.624 60.7467 118.25 48.7064 122.956 44.6881C127.662 40.6698 131.439 49.9928 131.439 49.9928" stroke="#313B40" stroke-width="1.10311" stroke-linecap="round" stroke-linejoin="round"/>
<path d="M187.799 70.3009C187.799 70.3009 193.275 71.3994 194.844 66.8319C196.412 62.2644 201.787 50.224 197.081 46.2057C192.374 42.1875 188.598 51.5105 188.598 51.5105" stroke="#313B40" stroke-width="1.10311" stroke-linecap="round" stroke-linejoin="round"/>
<path d="M131.439 61.7151C133.488 61.3937 135.337 60.3084 136.61 58.6797C137.388 57.2501 137.881 55.6844 138.063 54.0688C138.602 50.995 138.874 47.8806 138.876 44.7603C138.812 43.5413 138.925 42.3194 139.21 41.1323C139.647 39.9376 140.318 38.8417 141.186 37.909C143.234 35.5096 145.718 33.486 147.679 30.9999C148.73 29.8267 149.53 28.4525 150.029 26.9614C150.529 25.4703 150.718 23.8935 150.584 22.3273C155.078 26.0143 160.329 28.6768 165.968 30.1277C171.607 31.5786 177.497 31.7825 183.223 30.7252C193.609 28.7016 203.559 19.6388 202.354 8.24892C202.126 6.33927 201.303 4.5485 200 3.1279C198.698 1.70731 196.981 0.728213 195.091 0.328016C189.963 -0.943955 185.358 1.77343 180.71 3.52239C172.242 6.70231 163.948 1.23863 155.392 0.328016C148.129 -0.466966 139.08 0.443644 135.274 7.68521C135.274 7.68521 122.201 9.21736 116.391 19.9713C110.58 30.7252 121.576 45.5986 121.576 45.5986C121.576 45.5986 125.934 40.2795 131.643 51.0334L131.439 61.7151Z" fill="#313B40"/>
<path d="M182.395 27.0973C182.395 27.0973 178.996 44.7314 187.871 53.2739C187.871 53.2739 189.818 47.9692 191.779 46.6683C193.193 43.5388 193.792 40.1053 193.52 36.6848C193.248 33.2643 192.115 29.9669 190.225 27.0973C183.659 16.8348 182.395 27.0973 182.395 27.0973Z" fill="#313B40"/>
<path opacity="0.2" d="M198.577 7.03476C197.798 9.44085 196.476 11.6382 194.714 13.4592C192.952 15.2803 190.796 16.677 188.409 17.543C176.091 22.5441 164.136 17.0082 151.79 15.9241C141.723 15.0279 130.611 24.0763 129.899 34.3677" stroke="#E1E1E6" stroke-width="1.10311" stroke-linecap="round" stroke-linejoin="round"/>
<path opacity="0.2" d="M122.303 31.6503C122.453 27.5892 123.763 23.6547 126.078 20.3067C128.393 16.9588 131.618 14.3357 135.376 12.7442" stroke="#E1E1E6" stroke-width="1.10311" stroke-linecap="round" stroke-linejoin="round"/>
<path d="M138.135 99.1227C143.552 104.74 150.088 109.171 157.324 112.131C157.324 112.131 172.067 107.868 179.562 97.6773" stroke="#313B40" stroke-width="1.10311" stroke-linecap="round" stroke-linejoin="round"/>
<path d="M153.203 73.4845C159.751 70.4958 162.624 62.7908 159.621 56.275C156.617 49.7591 148.874 46.8998 142.326 49.8885C135.778 52.8772 132.905 60.5822 135.908 67.098C138.911 73.6139 146.654 76.4732 153.203 73.4845Z" stroke="#313B40" stroke-width="1.10311" stroke-linecap="round" stroke-linejoin="round"/>
<path d="M178.479 74.627C185.629 73.7534 190.714 67.2772 189.836 60.162C188.958 53.0469 182.45 47.9871 175.299 48.8607C168.149 49.7344 163.064 56.2106 163.942 63.3257C164.82 70.4409 171.328 75.5006 178.479 74.627Z" stroke="#313B40" stroke-width="1.10311" stroke-linecap="round" stroke-linejoin="round"/>
<path d="M140.983 94.2805C139.661 94.6257 138.423 95.2324 137.342 96.0644C136.262 96.8963 135.361 97.9365 134.693 99.1227C132.383 103.17 133.778 115.904 133.778 115.904C133.778 115.904 145.703 127.641 155.857 132.599L158.849 115.846L163.497 132.599C163.497 132.599 179.214 121.541 183.572 112.189C183.572 112.189 185.024 101.276 183.572 97.7351C183.242 96.7515 182.613 95.8939 181.773 95.2804C180.933 94.6669 179.922 94.3277 178.88 94.3094" stroke="#313B40" stroke-width="1.10311" stroke-linecap="round" stroke-linejoin="round"/>
<path d="M122.303 206.358C122.303 206.358 117.64 175.282 111.437 162.606" stroke="#313B40" stroke-width="1.10311" stroke-linecap="round" stroke-linejoin="round"/>
<path d="M98.0302 135.027C101.641 140.134 104.865 145.502 107.675 151.086" stroke="#313B40" stroke-width="1.10311" stroke-linecap="round" stroke-linejoin="round"/>
<path d="M220.496 158.226C221.748 153.03 223.464 147.956 225.623 143.063" stroke="#313B40" stroke-width="1.10311" stroke-linecap="round" stroke-linejoin="round"/>
<path d="M210.865 206.359C210.865 206.359 214.221 185.053 218.23 167.506" stroke="#313B40" stroke-width="1.10311" stroke-linecap="round" stroke-linejoin="round"/>
<path d="M216.559 176.438C219.803 172.159 224.363 169.053 229.545 167.592" stroke="#313B40" stroke-width="1.10311" stroke-linecap="round" stroke-linejoin="round"/>
<path d="M184.211 109.356C184.211 109.356 211.272 120.125 228.747 126.239C228.747 126.239 250.245 146.345 273.297 216.028C273.297 216.028 252.177 251.383 211.999 262.715" stroke="#313B40" stroke-width="1.10311" stroke-linecap="round" stroke-linejoin="round"/>
<path d="M218.971 230.107L238.392 214.019C238.392 214.019 248.661 206.257 259.338 211.562" stroke="#313B40" stroke-width="1.10311" stroke-linecap="round" stroke-linejoin="round"/>
<path d="M218.23 174.516C218.23 174.516 234.281 198.12 238.392 214.019" stroke="#313B40" stroke-width="1.10311" stroke-linecap="round" stroke-linejoin="round"/>
<path d="M108.532 219.382L102.853 214.019C102.853 214.019 94.428 212.574 84.8701 218.919" stroke="#313B40" stroke-width="1.10311" stroke-linecap="round" stroke-linejoin="round"/>
<path d="M102.853 214.019C102.853 214.019 109.912 190.893 116.87 179.055" stroke="#313B40" stroke-width="1.10311" stroke-linecap="round" stroke-linejoin="round"/>
<path d="M133.371 112.189C133.371 112.189 94.4282 126.73 90.6079 130.98C86.7877 135.229 72.2765 216.534 71.8843 225.843C71.5502 234.168 101.88 252.858 116.914 260.735" stroke="#313B40" stroke-width="1.10311" stroke-linecap="round" stroke-linejoin="round"/>
<path d="M162.495 139.667C162.495 140.173 162.344 140.667 162.062 141.088C161.779 141.509 161.378 141.837 160.908 142.03C160.438 142.224 159.921 142.275 159.422 142.176C158.924 142.077 158.466 141.834 158.106 141.476C157.746 141.118 157.502 140.662 157.402 140.166C157.303 139.67 157.354 139.155 157.549 138.688C157.743 138.22 158.073 137.821 158.496 137.54C158.918 137.258 159.416 137.108 159.924 137.108C160.262 137.107 160.597 137.171 160.91 137.299C161.223 137.427 161.507 137.616 161.746 137.853C161.986 138.091 162.175 138.374 162.303 138.685C162.432 138.997 162.497 139.33 162.495 139.667Z" fill="#313B40"/>
<path d="M207.554 275.855H118.947C118.396 275.855 117.868 275.638 117.478 275.25C117.089 274.862 116.87 274.336 116.87 273.788C116.87 273.24 117.089 272.714 117.478 272.326C117.868 271.938 118.396 271.72 118.947 271.72H207.554C208.105 271.72 208.633 271.938 209.022 272.326C209.412 272.714 209.631 273.24 209.631 273.788C209.631 274.336 209.412 274.862 209.022 275.25C208.633 275.638 208.105 275.855 207.554 275.855Z" fill="#313B40"/>
<path d="M210.662 268.945L222.53 213.441C222.714 212.581 222.702 211.69 222.495 210.834C222.289 209.979 221.892 209.18 221.335 208.497C220.778 207.814 220.074 207.263 219.276 206.885C218.477 206.508 217.604 206.313 216.719 206.315H113.151C112.275 206.315 111.409 206.509 110.616 206.882C109.824 207.256 109.125 207.799 108.569 208.474C108.013 209.149 107.615 209.938 107.402 210.784C107.19 211.631 107.169 212.513 107.341 213.369L117.988 267.023C118.249 268.341 118.955 269.53 119.987 270.395C121.02 271.26 122.318 271.748 123.668 271.778L204.707 273.628C206.092 273.659 207.444 273.208 208.531 272.353C209.618 271.499 210.372 270.293 210.662 268.945Z" fill="#E1E1E6" stroke="#313B40" stroke-width="1.10311" stroke-linecap="round" stroke-linejoin="round"/>
<path d="M172.866 238.346C172.863 239.972 172.376 241.56 171.466 242.911C170.556 244.262 169.264 245.314 167.754 245.934C166.243 246.554 164.582 246.715 162.98 246.396C161.377 246.077 159.906 245.293 158.752 244.142C157.597 242.991 156.811 241.526 156.494 239.931C156.176 238.336 156.34 236.683 156.966 235.181C157.592 233.679 158.652 232.395 160.011 231.492C161.37 230.589 162.967 230.107 164.601 230.107C165.688 230.107 166.764 230.32 167.767 230.734C168.771 231.149 169.683 231.756 170.45 232.521C171.218 233.286 171.827 234.194 172.241 235.194C172.656 236.193 172.868 237.264 172.866 238.346Z" fill="#313B40"/>
<path d="M189.121 211.62H201.424" stroke="#313B40" stroke-width="1.10311" stroke-linecap="round" stroke-linejoin="round"/>
<path d="M130.364 211.62H177.064" stroke="#313B40" stroke-width="1.10311" stroke-linecap="round" stroke-linejoin="round"/>
<path d="M160.796 63.7677H164.267" stroke="#313B40" stroke-width="1.10311" stroke-linecap="round" stroke-linejoin="round"/>
<path d="M23.9263 269.854L23.0258 461.271C23.0258 461.874 23.3046 462.453 23.8009 462.879C24.2972 463.305 24.9704 463.545 25.6723 463.545C26.3568 463.545 27.0144 463.316 27.5052 462.906C27.996 462.496 28.2813 461.938 28.3005 461.35L34.6596 270.123L23.9263 269.854Z" fill="#E1E1E6" stroke="#263238" stroke-linecap="round" stroke-linejoin="round"/>
<path d="M10.062 314.308L9.27673 512.077C9.27451 512.376 9.33522 512.672 9.45534 512.949C9.57547 513.225 9.75262 513.477 9.97647 513.688C10.2003 513.9 10.4664 514.067 10.7593 514.18C11.0522 514.294 11.3661 514.351 11.6827 514.349C12.3038 514.35 12.901 514.123 13.3495 513.717C13.7979 513.311 14.0628 512.757 14.0886 512.171L19.8529 314.56L10.062 314.308Z" fill="#E1E1E6" stroke="#263238" stroke-linecap="round" stroke-linejoin="round"/>
<path d="M311.994 269.854L312.814 461.271C312.816 461.569 312.756 461.865 312.637 462.14C312.517 462.416 312.341 462.667 312.119 462.878C311.897 463.089 311.632 463.257 311.341 463.372C311.049 463.486 310.737 463.545 310.421 463.545C309.796 463.545 309.195 463.317 308.746 462.907C308.296 462.498 308.033 461.939 308.011 461.35L302.238 270.123L311.994 269.854Z" fill="#E1E1E6" stroke="#263238" stroke-linecap="round" stroke-linejoin="round"/>
<path d="M325.744 314.308L326.563 512.077C326.565 512.376 326.504 512.672 326.384 512.949C326.264 513.225 326.087 513.477 325.863 513.688C325.639 513.9 325.373 514.067 325.08 514.18C324.787 514.294 324.474 514.351 324.157 514.349C323.538 514.349 322.942 514.123 322.496 513.716C322.051 513.31 321.789 512.756 321.768 512.171L315.987 314.56L325.744 314.308Z" fill="#E1E1E6" stroke="#263238" stroke-linecap="round" stroke-linejoin="round"/>
<path d="M108.106 322.775L107.646 497.66C107.596 498.097 107.718 498.535 107.987 498.884C108.256 499.233 108.65 499.465 109.088 499.531C109.514 499.472 109.903 499.254 110.173 498.921C110.444 498.588 110.577 498.166 110.545 497.739L113.981 322.98L108.106 322.775Z" fill="#E1E1E6" stroke="#263238" stroke-linecap="round" stroke-linejoin="round"/>
<path d="M228.75 316.425L229.254 470.426C229.297 470.799 229.17 471.171 228.899 471.466C228.628 471.762 228.235 471.957 227.8 472.012C227.366 471.957 226.974 471.761 226.706 471.465C226.439 471.17 226.316 470.797 226.364 470.426L222.916 316.552L228.75 316.425Z" fill="#E1E1E6" stroke="#263238" stroke-linecap="round" stroke-linejoin="round"/>
<path d="M106.066 316.425L106.57 470.426C106.613 470.799 106.486 471.171 106.215 471.466C105.944 471.762 105.551 471.957 105.116 472.012C104.682 471.957 104.29 471.761 104.022 471.465C103.755 471.17 103.632 470.797 103.68 470.426L100.232 316.552L106.066 316.425Z" fill="#E1E1E6" stroke="#263238" stroke-linecap="round" stroke-linejoin="round"/>
<path d="M225.503 322.775L226.076 497.66C226.135 498.097 225.992 498.535 225.679 498.884C225.365 499.233 224.905 499.465 224.395 499.531C223.899 499.469 223.448 499.25 223.133 498.918C222.818 498.586 222.662 498.165 222.695 497.739L218.686 322.98L225.503 322.775Z" fill="#E1E1E6" stroke="#263238" stroke-linecap="round" stroke-linejoin="round"/>
<path d="M165.706 336C207.93 336 242.158 328.227 242.158 318.638C242.158 309.049 207.93 301.276 165.706 301.276C123.483 301.276 89.2546 309.049 89.2546 318.638C89.2546 328.227 123.483 336 165.706 336Z" fill="#E1E1E6" stroke="#263238" stroke-linecap="round" stroke-linejoin="round"/>
<path d="M128.477 466.018C128.477 466.018 124.474 471.72 127.343 474.554C130.212 477.388 133.064 476.261 132.772 479.112C132.48 481.963 127.91 491.626 123.907 501.869C119.904 512.112 128.202 522.355 135.933 519.521C143.664 516.687 142.805 488.212 143.939 483.09C145.073 477.969 145.949 477.115 145.657 472.284C145.365 467.452 145.09 462.331 141.362 461.75C137.634 461.17 130.195 464.038 128.477 466.018Z" fill="#E1E1E6" stroke="#263238" stroke-linecap="round" stroke-linejoin="round"/>
<path d="M140.761 511.668C135.607 509.722 127.704 510.115 123.254 510.559C124.749 516.995 130.47 521.519 135.933 519.521C138.218 518.685 139.713 515.646 140.761 511.668Z" fill="#61DCFB" stroke="#263238" stroke-linecap="round" stroke-linejoin="round"/>
<path d="M119.612 453.505C119.612 453.505 127.91 467.452 130.195 471.14C132.48 474.827 140.228 473.701 141.087 468.579C141.946 463.458 137.926 449.237 137.926 449.237L120.746 453.505H119.612Z" fill="#E1E1E6" stroke="#263238" stroke-linecap="round" stroke-linejoin="round"/>
<path d="M99.8549 431.312C99.8549 431.312 97.5528 435.016 98.7038 437.577C99.8549 440.138 102.999 447.53 105.009 451.234C107.019 454.939 116.176 457.21 126.759 455.502C137.342 453.795 143.372 448.947 143.664 444.679C143.956 440.411 141.946 434.726 140.503 427.897C139.06 421.069 135.349 421.359 130.195 421.359C125.041 421.359 104.15 427.334 99.8549 431.312Z" fill="#61DCFB" stroke="#263238" stroke-linecap="round" stroke-linejoin="round"/>
<path d="M130.779 347.66C130.934 340.661 135.005 337.212 135.315 332.415C135.799 326.073 135.272 319.695 133.751 313.516L125.917 302.881C103.377 303.171 87.2274 303.547 86.9697 303.632C86.1107 303.905 85.5265 308.753 84.9596 312.731C84.9596 312.731 75.3902 313.943 77.1082 340.404C77.3488 344.092 87.0041 386.754 87.7084 391.62C92.0035 421.342 101.573 436.228 101.573 436.228C101.573 436.228 102.432 439.933 113.599 439.079C124.766 438.226 135.933 430.834 135.933 430.834C135.933 430.834 130.195 372.977 130.779 347.66Z" fill="#263238" stroke="#263238" stroke-linecap="round" stroke-linejoin="round"/>
<path d="M104.425 313.516C111.966 313.902 119.449 315.046 126.759 316.931C136.5 319.782 153.68 325.467 157.683 325.467C161.686 325.467 160.552 310.665 160.552 307.832C160.552 304.998 109.012 303.273 102.707 303.273C96.4016 303.273 104.425 313.516 104.425 313.516Z" fill="#E1E1E6" stroke="#263238" stroke-linecap="round" stroke-linejoin="round"/>
<path d="M160.552 307.832C160.552 307.832 155.965 310.102 154.247 318.638C152.529 327.174 150.244 331.732 153.68 334.003C157.116 336.273 172.012 337.98 174.296 335.71C176.581 333.439 182.887 322.052 184.038 314.66C185.189 307.268 160.552 307.832 160.552 307.832Z" fill="#61DCFB" stroke="#263238" stroke-linecap="round" stroke-linejoin="round"/>
<path d="M180.018 310.665C177.355 313.702 175.228 317.166 173.73 320.908C172.515 324.826 171.557 328.818 170.861 332.859C176.342 334.352 181.7 336.258 186.89 338.561C196.064 342.538 211.526 345.389 226.404 348.804C241.282 352.218 245.302 355.632 250.456 355.632C255.61 355.632 261.916 351.638 269.939 341.975C277.962 332.312 271.073 311.809 263.067 305.544C255.061 299.279 212.093 294.174 206.372 295.881C200.651 297.589 180.018 310.665 180.018 310.665Z" fill="#263238" stroke="#263238" stroke-linecap="round" stroke-linejoin="round"/>
<path d="M129.903 335.181C129.903 335.181 123.993 398.022 111.932 407.804" stroke="#49606B" stroke-width="0.5" stroke-linecap="round" stroke-linejoin="round"/>
<path d="M125.728 394.829C125.728 394.829 121.038 415.315 108.737 423.459" stroke="#49606B" stroke-width="0.5" stroke-linecap="round" stroke-linejoin="round"/>
<path d="M201.785 323.76C201.785 323.76 183.454 324.903 195.48 332.859C207.506 340.814 229.273 345.953 229.273 345.953" stroke="#49606B" stroke-width="0.5" stroke-linecap="round" stroke-linejoin="round"/>
<path d="M334.863 306.887L328.678 301.356L314.384 270.627C313.706 269.229 312.641 268.052 311.315 267.232C309.988 266.413 308.455 265.986 306.893 266.001H29.2614C27.6968 265.983 26.1596 266.408 24.8298 267.228C23.5001 268.047 22.433 269.226 21.7537 270.627L3.9378 308.902L1 307.826V316.584L1.13744 316.482C1.31244 317.65 1.90924 318.715 2.81651 319.479C3.72378 320.242 4.87954 320.651 6.06815 320.63H330.069C331.321 320.659 332.535 320.203 333.455 319.359C334.375 318.515 334.929 317.348 335 316.106L334.863 306.887Z" fill="#5E5E61" stroke="#263238" stroke-linecap="round" stroke-linejoin="round"/>
<path d="M330.069 312.202H6.06831C5.26596 312.234 4.46864 312.062 3.75113 311.704C3.03361 311.346 2.41941 310.812 1.9661 310.154C1.51279 309.495 1.23521 308.733 1.15942 307.939C1.08362 307.144 1.21208 306.344 1.53274 305.612L21.7538 262.199C22.4298 260.795 23.4961 259.614 24.8266 258.794C26.1571 257.974 27.6961 257.55 29.2616 257.572H306.893C308.456 257.554 309.991 257.979 311.318 258.799C312.646 259.618 313.709 260.798 314.384 262.199L334.605 305.612C334.926 306.344 335.054 307.144 334.978 307.939C334.903 308.733 334.625 309.495 334.172 310.154C333.718 310.812 333.104 311.346 332.387 311.704C331.669 312.062 330.872 312.234 330.069 312.202Z" fill="#E1E1E6" stroke="#263238" stroke-linecap="round" stroke-linejoin="round"/>
<g style="mix-blend-mode:multiply" opacity="0.5">
<path d="M22.4752 283.043C22.4752 283.043 15.1393 288.045 19.7264 289.872C24.3135 291.699 77.0395 290.333 83.4649 288.506C89.8903 286.68 97.209 269.83 97.209 267.098C97.209 264.367 87.9661 262.403 84.5644 262.25C81.1627 262.096 36.2194 264.811 36.2194 264.811L22.4752 283.043Z" fill="#A8A8A8"/>
</g>
<g style="mix-blend-mode:multiply" opacity="0.5">
<path d="M284.748 291.699C295.128 291.699 303.543 288.229 303.543 283.948C303.543 279.668 295.128 276.197 284.748 276.197C274.368 276.197 265.953 279.668 265.953 283.948C265.953 288.229 274.368 291.699 284.748 291.699Z" fill="#A8A8A8"/>
</g>
<g style="mix-blend-mode:multiply" opacity="0.5">
<path d="M165.088 301.276C202.311 301.276 232.486 295.666 232.486 288.745C232.486 281.825 202.311 276.215 165.088 276.215C127.865 276.215 97.6901 281.825 97.6901 288.745C97.6901 295.666 127.865 301.276 165.088 301.276Z" fill="#A8A8A8"/>
</g>
<path d="M271.004 253.458C271.004 253.458 269.767 248.558 265.661 250.197C261.555 251.836 261.967 262.66 262.775 268.788C263.582 274.917 269.148 272.049 269.148 272.049V268.379C269.148 268.379 267.104 270.001 266.073 267.764C265.042 265.528 265.249 254.277 266.279 254.482C267.31 254.687 269.355 258.153 269.355 258.153C269.355 258.153 269.973 257.76 271.004 253.458Z" fill="#61DCFB" stroke="#263238" stroke-linecap="round" stroke-linejoin="round"/>
<path d="M268.049 254.277V281.114C268.049 284.272 275.35 286.833 284.37 286.833C293.389 286.833 300.674 284.272 300.674 281.114V254.277H268.049Z" fill="#61DCFB" stroke="#263238" stroke-linecap="round" stroke-linejoin="round"/>
<path d="M300.674 254.277C300.674 257.009 293.372 259.211 284.37 259.211C275.367 259.211 268.049 257.009 268.049 254.277C268.049 251.546 275.35 249.344 284.37 249.344C293.389 249.344 300.674 251.563 300.674 254.277Z" fill="#E1E1E6" stroke="#263238" stroke-linecap="round" stroke-linejoin="round"/>
<path d="M298.543 254.277C298.543 256.65 292.187 258.562 284.37 258.562C276.553 258.562 270.179 256.65 270.179 254.277C270.179 251.904 276.536 249.992 284.37 249.992C292.204 249.992 298.543 251.904 298.543 254.277Z" fill="#E1E1E6" stroke="#263238" stroke-linecap="round" stroke-linejoin="round"/>
<path d="M273.426 257.009C280.567 259.08 288.155 259.08 295.297 257.009C288.155 254.938 280.567 254.938 273.426 257.009Z" fill="#263238" stroke="#263238" stroke-linecap="round" stroke-linejoin="round"/>
<path d="M20.4479 266.535L20.6541 275.719L82.9322 276.334V265.715L20.4479 266.535Z" fill="#E1E1E6" stroke="#263238" stroke-linecap="round" stroke-linejoin="round"/>
<path d="M82.9323 276.334L91.9862 256.941V251.222L82.52 267.559L82.9323 276.334Z" fill="#E1E1E6" stroke="#263238" stroke-linecap="round" stroke-linejoin="round"/>
<path d="M20.4479 274.9L20.6541 284.102L82.9322 284.716V274.098L20.4479 274.9Z" fill="#E1E1E6" stroke="#263238" stroke-linecap="round" stroke-linejoin="round"/>
<path d="M82.9323 284.716L91.9862 265.306V259.587L82.52 275.924L82.9323 284.716Z" fill="#E1E1E6" stroke="#263238" stroke-linecap="round" stroke-linejoin="round"/>
<path d="M44.5002 243.249C44.5002 243.249 45.9434 240.398 43.8818 239.169C41.8201 237.94 39.5695 240.876 38.3326 241.815C37.0956 242.754 11.205 259.791 10.3804 262.455C9.55574 265.118 10.3804 270.991 15.9296 271.639C21.4788 272.288 26.4095 268.583 28.8835 267.969C31.3574 267.354 32.3195 267.149 32.3195 267.149L49.3794 244.273L44.5002 243.249Z" fill="#61DCFB" stroke="#263238" stroke-linecap="round" stroke-linejoin="round"/>
<path d="M15.9296 271.656C21.4788 272.271 26.4095 268.601 28.8834 267.986C31.3574 267.371 32.3195 267.167 32.3195 267.167L32.9379 266.33L16.9088 263.086C16.0374 262.271 14.917 261.767 13.7251 261.656C12.5332 261.545 11.3379 261.832 10.3288 262.472C9.5557 265.101 10.3804 271.025 15.9296 271.656Z" fill="#E1E1E6" stroke="#263238" stroke-linecap="round" stroke-linejoin="round"/>
<path d="M16.9603 263.121H65.0648C80.0803 263.121 84.5987 262.301 84.5987 262.301L93.8417 243.3C93.8417 243.3 64.6353 245.144 55.6157 244.529C51.8886 244.423 48.1767 244.012 44.5174 243.3L16.9603 263.121Z" fill="#61DCFB" stroke="#263238" stroke-linecap="round" stroke-linejoin="round"/>
<path d="M16.9603 263.121L17.785 266.791C17.785 266.791 56.8355 266.996 67.1093 266.996C77.383 266.996 85.2 267.406 85.2 267.406L84.5815 262.284L16.9603 263.121Z" fill="#E1E1E6" stroke="#263238" stroke-linecap="round" stroke-linejoin="round"/>
<path d="M85.1999 267.354L93.8244 247.739V243.249L84.5814 262.25L85.1999 267.354Z" fill="#E1E1E6" stroke="#263238" stroke-linecap="round" stroke-linejoin="round"/>
<path d="M223.947 290.299H106.177C105.916 290.301 105.657 290.252 105.416 290.154C105.174 290.057 104.954 289.912 104.769 289.73C104.584 289.547 104.437 289.33 104.336 289.091C104.236 288.851 104.184 288.595 104.184 288.336C104.184 288.076 104.236 287.82 104.336 287.58C104.437 287.341 104.584 287.124 104.769 286.941C104.954 286.759 105.174 286.614 105.416 286.517C105.657 286.419 105.916 286.37 106.177 286.372H223.947C224.207 286.37 224.465 286.419 224.706 286.517C224.947 286.615 225.165 286.759 225.349 286.942C225.533 287.125 225.679 287.342 225.777 287.582C225.876 287.821 225.925 288.077 225.923 288.336C225.925 288.594 225.876 288.85 225.777 289.09C225.679 289.329 225.533 289.546 225.349 289.729C225.165 289.912 224.947 290.056 224.706 290.154C224.465 290.252 224.207 290.301 223.947 290.299Z" fill="#161E22" stroke="#263238" stroke-linecap="round" stroke-linejoin="round"/>
<path d="M225.081 286.338H105.301C104.863 286.339 104.441 286.173 104.121 285.875C103.802 285.576 103.609 285.168 103.583 284.733L97.0716 206.971C97.0423 206.731 97.065 206.487 97.1381 206.255C97.2112 206.024 97.3331 205.81 97.4957 205.63C97.6582 205.449 97.8577 205.304 98.0808 205.206C98.3039 205.108 98.5456 205.058 98.7896 205.059H231.61C231.854 205.058 232.095 205.108 232.318 205.206C232.542 205.304 232.741 205.449 232.904 205.63C233.066 205.81 233.188 206.024 233.261 206.255C233.334 206.487 233.357 206.731 233.328 206.971L226.816 284.733C226.79 285.171 226.595 285.582 226.272 285.881C225.949 286.179 225.522 286.343 225.081 286.338Z" fill="#161E22" stroke="#263238" stroke-linecap="round" stroke-linejoin="round"/>
<path d="M293.407 186.298C295.244 184.873 296.535 182.867 297.066 180.613C297.452 178.922 297.411 177.162 296.946 175.491" stroke="#6C7D85" stroke-linecap="round" stroke-linejoin="round"/>
<path d="M279.697 247.176C279.697 247.176 291.122 240.347 287.394 232.545C283.666 224.743 271.055 219.571 271.055 207.415C271.055 196.933 282.274 193.058 289.593 188.858" stroke="#6C7D85" stroke-linecap="round" stroke-linejoin="round"/>
<path d="M290.246 246.954C290.246 246.954 296.619 242.737 296.619 236.045C296.619 231.555 291.792 228.619 285.418 221.397" stroke="#6C7D85" stroke-linecap="round" stroke-linejoin="round"/>
<path d="M281.897 217.027C281.897 217.027 277.72 213.766 280.797 207.637" stroke="#6C7D85" stroke-linecap="round" stroke-linejoin="round"/>
<path fill-rule="evenodd" clip-rule="evenodd" d="M177.213 241.296C182.626 242.933 186.157 245.572 186.157 248.357C186.157 251.133 182.644 253.772 177.265 255.408C178.523 260.841 177.976 265.168 175.538 266.556C174.966 266.882 174.306 267.036 173.577 267.036C171.192 267.036 168.068 265.374 164.911 262.477C161.753 265.391 158.629 267.07 156.244 267.07C155.515 267.07 154.855 266.916 154.292 266.59C151.845 265.202 151.29 260.867 152.539 255.417C147.126 253.78 143.595 251.141 143.595 248.357C143.595 245.58 147.108 242.95 152.504 241.305C151.246 235.872 151.793 231.545 154.231 230.157C154.803 229.832 155.463 229.677 156.192 229.677V229.669C158.577 229.669 161.701 231.331 164.858 234.227C168.016 231.314 171.14 229.635 173.525 229.635V229.643C174.242 229.644 174.898 229.799 175.46 230.123C177.907 231.511 178.462 235.847 177.213 241.296ZM173.517 231.545C171.712 231.55 169.062 232.972 166.238 235.564C167.461 236.823 168.676 238.263 169.847 239.848C171.799 240.054 173.656 240.371 175.356 240.782C175.547 239.917 175.703 239.068 175.798 238.263C176.198 234.99 175.686 232.445 174.506 231.777C174.237 231.631 173.916 231.554 173.517 231.554V231.545ZM163.479 235.572C160.651 232.993 157.987 231.58 156.192 231.58V231.588C155.792 231.588 155.454 231.657 155.194 231.811C154.023 232.488 153.519 235.033 153.927 238.306C154.031 239.103 154.179 239.934 154.378 240.791C156.079 240.371 157.935 240.054 159.896 239.848C161.05 238.263 162.264 236.832 163.479 235.572ZM173.69 246.026C174.141 244.886 174.54 243.747 174.861 242.641C173.725 242.367 172.536 242.144 171.304 241.965C171.73 242.616 172.155 243.284 172.554 243.97C172.962 244.655 173.335 245.34 173.69 246.026ZM168.797 255.04C169.517 254.02 170.211 252.924 170.888 251.767C171.539 250.644 172.137 249.496 172.684 248.348C172.137 247.2 171.539 246.06 170.879 244.938C170.203 243.79 169.5 242.701 168.78 241.682C167.496 241.579 166.186 241.519 164.876 241.519C163.557 241.519 162.247 241.579 160.954 241.69C160.234 242.71 159.54 243.807 158.864 244.963C158.213 246.086 157.606 247.234 157.068 248.382C157.614 249.53 158.213 250.67 158.872 251.793C159.549 252.941 160.252 254.029 160.972 255.049C162.256 255.151 163.566 255.211 164.876 255.211C166.195 255.211 167.505 255.151 168.797 255.04ZM174.888 254.063C174.558 252.949 174.159 251.801 173.69 250.653C173.335 251.338 172.962 252.032 172.562 252.718C172.163 253.412 171.738 254.089 171.313 254.749C172.554 254.569 173.751 254.337 174.888 254.063ZM162.481 257.054C163.28 258.056 164.086 258.973 164.893 259.795C165.691 258.973 166.498 258.056 167.279 257.054C166.49 257.096 165.683 257.114 164.867 257.114C164.06 257.114 163.262 257.088 162.481 257.054ZM154.882 254.072C156.018 254.346 157.207 254.569 158.439 254.749C158.013 254.097 157.597 253.429 157.189 252.744C156.781 252.058 156.408 251.373 156.053 250.687C155.602 251.827 155.203 252.966 154.882 254.072ZM167.262 239.66C166.463 238.657 165.657 237.74 164.85 236.918C164.052 237.74 163.245 238.657 162.464 239.66C163.253 239.617 164.06 239.6 164.876 239.6C165.683 239.6 166.481 239.625 167.262 239.66ZM157.181 243.995C157.58 243.301 158.005 242.624 158.43 241.965C157.189 242.144 155.992 242.376 154.855 242.641C155.185 243.755 155.584 244.903 156.053 246.052C156.408 245.366 156.781 244.681 157.181 243.995ZM145.521 248.357C145.521 249.702 147.507 251.398 150.578 252.692C151.333 253.009 152.149 253.301 153.008 253.566C153.493 251.895 154.135 250.156 154.934 248.374C154.127 246.583 153.476 244.835 152.982 243.156C152.14 243.421 151.325 243.704 150.578 244.021C147.507 245.306 145.521 247.011 145.521 248.357ZM153.953 258.45C153.554 261.723 154.066 264.268 155.246 264.937C155.506 265.082 155.836 265.159 156.226 265.168C158.031 265.168 160.686 263.746 163.514 261.149C162.291 259.89 161.076 258.45 159.905 256.865C157.953 256.659 156.096 256.342 154.396 255.931C154.205 256.796 154.049 257.645 153.953 258.45ZM174.558 264.902C175.729 264.225 176.232 261.681 175.824 258.407C175.729 257.611 175.573 256.779 175.373 255.914C173.673 256.334 171.816 256.651 169.856 256.856C168.702 258.442 167.487 259.873 166.273 261.132C169.101 263.711 171.764 265.125 173.56 265.125C173.959 265.125 174.298 265.056 174.558 264.902ZM176.761 253.558C177.603 253.292 178.418 253.009 179.165 252.692C182.236 251.407 184.222 249.702 184.231 248.357C184.231 247.011 182.244 245.315 179.173 244.021C178.41 243.704 177.594 243.413 176.735 243.147C176.25 244.818 175.608 246.557 174.809 248.339C175.616 250.13 176.267 251.878 176.761 253.558ZM168.832 248.357C168.832 250.519 167.057 252.272 164.867 252.272C162.677 252.272 160.902 250.519 160.902 248.357C160.902 246.194 162.677 244.441 164.867 244.441C167.057 244.441 168.832 246.194 168.832 248.357Z" fill="#61DCFB"/>
</svg>
