<svg width="205" height="35" viewBox="0 0 205 35" fill="none" xmlns="http://www.w3.org/2000/svg">
<path d="M6.46008 11.6367V34.3125H0.9757V7.98047H6.09093L6.46008 11.6367ZM18.3253 17.2793V17.6484C18.3253 19.0312 18.1671 20.3145 17.8507 21.498C17.5343 22.6699 17.0597 23.6953 16.4269 24.5742C15.8058 25.4531 15.0382 26.1387 14.1241 26.6309C13.2101 27.1113 12.1495 27.3516 10.9425 27.3516C9.79406 27.3516 8.79797 27.1113 7.95422 26.6309C7.12218 26.1387 6.41906 25.459 5.84484 24.5918C5.28234 23.7129 4.82531 22.7109 4.47375 21.5859C4.1339 20.4492 3.87023 19.2363 3.68273 17.9473V17.2266C3.87023 15.8555 4.13976 14.584 4.49133 13.4121C4.84289 12.2402 5.29992 11.2266 5.86242 10.3711C6.42492 9.50391 7.12218 8.83008 7.95422 8.34961C8.78625 7.86914 9.77648 7.62891 10.9249 7.62891C12.1202 7.62891 13.1808 7.85742 14.1066 8.31445C15.0323 8.77148 15.8058 9.42773 16.4269 10.2832C17.0597 11.127 17.5343 12.1406 17.8507 13.3242C18.1671 14.5078 18.3253 15.8262 18.3253 17.2793ZM12.8234 17.6484V17.2793C12.8234 16.5059 12.7648 15.7969 12.6476 15.1523C12.5304 14.4961 12.3429 13.9277 12.0851 13.4473C11.8273 12.9551 11.4874 12.5742 11.0655 12.3047C10.6437 12.0352 10.128 11.9004 9.51867 11.9004C8.86242 11.9004 8.30578 12.0059 7.84875 12.2168C7.39172 12.4277 7.02258 12.7383 6.74133 13.1484C6.46008 13.5469 6.255 14.0391 6.12609 14.625C6.0089 15.2109 5.94445 15.8789 5.93273 16.6289V18.5625C5.94445 19.4414 6.0675 20.2266 6.30187 20.918C6.54797 21.5977 6.92883 22.1309 7.44445 22.5176C7.97179 22.8926 8.67492 23.0801 9.55383 23.0801C10.1749 23.0801 10.6905 22.9453 11.1007 22.6758C11.5226 22.3945 11.8566 22.002 12.1027 21.498C12.3605 20.9941 12.5421 20.4141 12.6476 19.7578C12.7648 19.1016 12.8234 18.3984 12.8234 17.6484ZM26.0252 12.4102V27H20.5409V7.98047H25.6912L26.0252 12.4102ZM31.703 7.83984L31.6151 12.9551C31.3807 12.9199 31.076 12.8906 30.701 12.8672C30.326 12.832 30.0037 12.8145 29.7342 12.8145C29.0311 12.8145 28.4217 12.9023 27.9061 13.0781C27.4022 13.2422 26.9803 13.4883 26.6405 13.8164C26.3123 14.1445 26.0662 14.5547 25.9022 15.0469C25.7381 15.5273 25.6561 16.084 25.6561 16.7168L24.619 16.207C24.619 14.9531 24.742 13.8047 24.9881 12.7617C25.2342 11.7188 25.5916 10.8164 26.0604 10.0547C26.5291 9.28125 27.1034 8.68359 27.783 8.26172C28.4627 7.83984 29.2362 7.62891 30.1034 7.62891C30.3846 7.62891 30.6717 7.64648 30.9647 7.68164C31.2577 7.7168 31.5037 7.76953 31.703 7.83984ZM39.0162 7.98047V27H33.5142V7.98047H39.0162ZM33.1802 3.05859C33.1802 2.26172 33.4615 1.61133 34.024 1.10742C34.5865 0.591797 35.3248 0.333984 36.2388 0.333984C37.1529 0.333984 37.8912 0.591797 38.4537 1.10742C39.0279 1.61133 39.315 2.26172 39.315 3.05859C39.315 3.84375 39.0279 4.49414 38.4537 5.00977C37.8912 5.51367 37.1529 5.76562 36.2388 5.76562C35.3248 5.76562 34.5865 5.51367 34.024 5.00977C33.4615 4.49414 33.1802 3.84375 33.1802 3.05859ZM52.3762 21.709C52.3762 21.3574 52.2649 21.0469 52.0423 20.7773C51.8313 20.5078 51.4446 20.2617 50.8821 20.0391C50.3313 19.8164 49.552 19.5938 48.5442 19.3711C47.595 19.1719 46.7102 18.9141 45.8899 18.5977C45.0696 18.2695 44.3548 17.877 43.7454 17.4199C43.136 16.9512 42.6614 16.4004 42.3216 15.7676C41.9817 15.123 41.8118 14.3906 41.8118 13.5703C41.8118 12.7734 41.9817 12.0176 42.3216 11.3027C42.6731 10.5879 43.177 9.95508 43.8333 9.4043C44.5012 8.85352 45.3098 8.41992 46.2591 8.10352C47.22 7.78711 48.3098 7.62891 49.5286 7.62891C51.2044 7.62891 52.6516 7.89258 53.8704 8.41992C55.0891 8.93555 56.0266 9.66211 56.6829 10.5996C57.3391 11.5254 57.6673 12.5859 57.6673 13.7812H52.1829C52.1829 13.2891 52.0891 12.8613 51.9016 12.498C51.7141 12.1348 51.427 11.8535 51.0403 11.6543C50.6536 11.4434 50.1438 11.3379 49.511 11.3379C49.0188 11.3379 48.5852 11.4258 48.2102 11.6016C47.847 11.7656 47.5598 11.9941 47.3489 12.2871C47.1497 12.5801 47.0501 12.9199 47.0501 13.3066C47.0501 13.5762 47.1087 13.8223 47.2259 14.0449C47.3548 14.2559 47.5481 14.4551 47.8059 14.6426C48.0755 14.8184 48.4212 14.9766 48.843 15.1172C49.2766 15.2578 49.804 15.3926 50.4251 15.5215C51.7493 15.7676 52.9563 16.1133 54.0462 16.5586C55.1477 17.0039 56.0266 17.6191 56.6829 18.4043C57.3509 19.1895 57.6848 20.2266 57.6848 21.5156C57.6848 22.3594 57.4915 23.1328 57.1048 23.8359C56.7298 24.5391 56.1848 25.1543 55.47 25.6816C54.7552 26.209 53.8997 26.6191 52.9036 26.9121C51.9075 27.2051 50.7825 27.3516 49.5286 27.3516C47.7356 27.3516 46.218 27.0293 44.9759 26.3848C43.7337 25.7402 42.7962 24.9316 42.1634 23.959C41.5423 22.9746 41.2317 21.9668 41.2317 20.9355H46.3821C46.4055 21.5684 46.5637 22.084 46.8567 22.4824C47.1614 22.8809 47.554 23.1738 48.0345 23.3613C48.5149 23.5371 49.054 23.625 49.6516 23.625C50.2493 23.625 50.7473 23.543 51.1458 23.3789C51.5442 23.2148 51.8489 22.9922 52.0598 22.7109C52.2708 22.418 52.3762 22.084 52.3762 21.709ZM65.5254 11.9707V27H60.041V7.98047H65.1914L65.5254 11.9707ZM64.8223 16.8223L63.4336 16.8574C63.4336 15.5215 63.5918 14.2969 63.9082 13.1836C64.2363 12.0586 64.7109 11.0801 65.332 10.248C65.9531 9.41602 66.7207 8.77148 67.6348 8.31445C68.5605 7.85742 69.6269 7.62891 70.834 7.62891C71.6777 7.62891 72.4453 7.75781 73.1367 8.01562C73.8281 8.26172 74.4199 8.6543 74.9121 9.19336C75.416 9.7207 75.8027 10.4121 76.0723 11.2676C76.3418 12.1113 76.4766 13.125 76.4766 14.3086V27H70.9922V14.9766C70.9922 14.1328 70.8867 13.4941 70.6758 13.0605C70.4766 12.6152 70.1836 12.3105 69.7969 12.1465C69.4102 11.9824 68.9473 11.9004 68.4082 11.9004C67.8223 11.9004 67.3008 12.0293 66.8437 12.2871C66.3984 12.5332 66.0234 12.8789 65.7187 13.3242C65.4141 13.7695 65.1855 14.291 65.0332 14.8887C64.8926 15.4863 64.8223 16.1309 64.8223 16.8223ZM75.9141 16.541L74.1738 16.6816C74.1738 15.3926 74.3262 14.1973 74.6309 13.0957C74.9355 11.9941 75.3926 11.0391 76.0019 10.2305C76.6113 9.41016 77.3672 8.77148 78.2695 8.31445C79.1836 7.85742 80.2441 7.62891 81.4512 7.62891C82.3418 7.62891 83.1504 7.75781 83.8769 8.01562C84.6152 8.27344 85.248 8.68945 85.7754 9.26367C86.3144 9.83789 86.7305 10.5938 87.0234 11.5312C87.3164 12.457 87.4629 13.5938 87.4629 14.9414V27H81.9434V14.9414C81.9434 14.1094 81.8379 13.4766 81.6269 13.043C81.4277 12.6094 81.1348 12.3105 80.748 12.1465C80.373 11.9824 79.9219 11.9004 79.3945 11.9004C78.8086 11.9004 78.2988 12.0234 77.8652 12.2695C77.4316 12.5039 77.0684 12.832 76.7754 13.2539C76.4824 13.6641 76.2656 14.1504 76.125 14.7129C75.9844 15.2754 75.9141 15.8848 75.9141 16.541ZM100.489 22.4648V14.3086C100.489 13.7344 100.401 13.2422 100.225 12.832C100.05 12.4219 99.7741 12.0996 99.3991 11.8652C99.0241 11.6309 98.5378 11.5137 97.9402 11.5137C97.4362 11.5137 96.9968 11.6016 96.6218 11.7773C96.2585 11.9531 95.9773 12.2051 95.778 12.5332C95.5905 12.8613 95.4968 13.2656 95.4968 13.7461H90.0124C90.0124 12.8906 90.2058 12.0938 90.5925 11.3555C90.9792 10.6172 91.53 9.9668 92.2448 9.4043C92.9714 8.8418 93.8386 8.4082 94.8464 8.10352C95.8542 7.78711 96.9851 7.62891 98.239 7.62891C99.7273 7.62891 101.051 7.88086 102.212 8.38477C103.384 8.87695 104.309 9.62109 104.989 10.6172C105.669 11.6016 106.009 12.8438 106.009 14.3438V22.3066C106.009 23.4551 106.073 24.3574 106.202 25.0137C106.342 25.6582 106.542 26.2207 106.8 26.7012V27H101.262C101.005 26.4492 100.811 25.7695 100.682 24.9609C100.553 24.1406 100.489 23.3086 100.489 22.4648ZM101.175 15.3984L101.21 18.4219H98.4851C97.8757 18.4219 97.3484 18.498 96.903 18.6504C96.4695 18.8027 96.1179 19.0137 95.8484 19.2832C95.5788 19.541 95.3796 19.8457 95.2507 20.1973C95.1335 20.5371 95.0749 20.9121 95.0749 21.3223C95.0749 21.709 95.1687 22.0605 95.3562 22.377C95.5437 22.6816 95.8015 22.9219 96.1296 23.0977C96.4577 23.2734 96.8386 23.3613 97.2722 23.3613C97.987 23.3613 98.5964 23.2207 99.1003 22.9395C99.6159 22.6582 100.014 22.3184 100.296 21.9199C100.577 21.5098 100.717 21.1289 100.717 20.7773L102.036 23.0625C101.825 23.5312 101.567 24.0176 101.262 24.5215C100.958 25.0137 100.571 25.4766 100.102 25.9102C99.6335 26.332 99.0652 26.6777 98.3972 26.9473C97.7409 27.2168 96.9499 27.3516 96.0241 27.3516C94.8288 27.3516 93.7448 27.1113 92.7722 26.6309C91.7995 26.1387 91.0202 25.4648 90.4343 24.6094C89.8601 23.7539 89.573 22.7695 89.573 21.6562C89.573 20.6602 89.7546 19.7754 90.1179 19.002C90.4812 18.2285 91.0261 17.5723 91.7527 17.0332C92.4909 16.4941 93.4167 16.0898 94.53 15.8203C95.6433 15.5391 96.9441 15.3984 98.4323 15.3984H101.175ZM130.651 12.041V27H125.149V7.98047H130.317L130.651 12.041ZM129.93 16.8223L128.559 16.8574C128.559 15.4277 128.735 14.1445 129.087 13.0078C129.438 11.8711 129.936 10.9043 130.581 10.1074C131.237 9.29883 132.016 8.68359 132.919 8.26172C133.833 7.83984 134.841 7.62891 135.942 7.62891C136.833 7.62891 137.647 7.75781 138.385 8.01562C139.124 8.27344 139.757 8.68945 140.284 9.26367C140.823 9.82617 141.233 10.5762 141.514 11.5137C141.796 12.4395 141.936 13.582 141.936 14.9414V27H136.417V14.9238C136.417 14.127 136.305 13.5117 136.083 13.0781C135.86 12.6445 135.532 12.3398 135.098 12.1641C134.676 11.9883 134.161 11.9004 133.551 11.9004C132.907 11.9004 132.356 12.0293 131.899 12.2871C131.442 12.5332 131.067 12.8789 130.774 13.3242C130.481 13.7695 130.264 14.291 130.124 14.8887C129.995 15.4863 129.93 16.1309 129.93 16.8223ZM153.767 27.3516C152.255 27.3516 150.902 27.1113 149.706 26.6309C148.511 26.1504 147.497 25.4883 146.665 24.6445C145.845 23.7891 145.218 22.8047 144.785 21.6914C144.351 20.5781 144.134 19.3887 144.134 18.123V17.4551C144.134 16.0371 144.333 14.7305 144.732 13.5352C145.13 12.3398 145.71 11.3027 146.472 10.4238C147.246 9.5332 148.195 8.84766 149.32 8.36719C150.445 7.875 151.728 7.62891 153.169 7.62891C154.517 7.62891 155.718 7.85156 156.773 8.29688C157.828 8.73047 158.718 9.35742 159.445 10.1777C160.171 10.9863 160.722 11.9648 161.097 13.1133C161.484 14.25 161.677 15.5273 161.677 16.9453V19.1953H146.349V15.6621H156.298V15.2402C156.298 14.5723 156.175 13.9863 155.929 13.4824C155.695 12.9785 155.343 12.5918 154.874 12.3223C154.417 12.041 153.837 11.9004 153.134 11.9004C152.466 11.9004 151.91 12.041 151.464 12.3223C151.019 12.6035 150.662 13.002 150.392 13.5176C150.134 14.0215 149.947 14.6133 149.83 15.293C149.712 15.9609 149.654 16.6816 149.654 17.4551V18.123C149.654 18.8613 149.753 19.5352 149.953 20.1445C150.152 20.7539 150.445 21.2754 150.831 21.709C151.218 22.1426 151.687 22.4824 152.238 22.7285C152.789 22.9746 153.415 23.0977 154.119 23.0977C154.986 23.0977 155.812 22.9336 156.597 22.6055C157.382 22.2656 158.062 21.7383 158.636 21.0234L161.203 23.959C160.816 24.5215 160.271 25.0664 159.568 25.5938C158.876 26.1094 158.044 26.5312 157.072 26.8594C156.099 27.1875 154.997 27.3516 153.767 27.3516ZM169.236 21.709L172.963 7.98047H176.426L175.248 14.0977L171.522 27H168.692L169.236 21.709ZM167.531 7.98047L170.027 21.6562L170.291 27H166.916L162.24 7.98047H167.531ZM179.801 21.3926L182.279 7.98047H187.57L182.93 27H179.555L179.801 21.3926ZM176.848 7.98047L180.61 21.6387L181.154 27H178.289L174.598 14.1152L173.473 7.98047H176.848ZM199.331 21.709C199.331 21.3574 199.22 21.0469 198.997 20.7773C198.786 20.5078 198.399 20.2617 197.837 20.0391C197.286 19.8164 196.507 19.5938 195.499 19.3711C194.55 19.1719 193.665 18.9141 192.845 18.5977C192.024 18.2695 191.309 17.877 190.7 17.4199C190.091 16.9512 189.616 16.4004 189.276 15.7676C188.936 15.123 188.766 14.3906 188.766 13.5703C188.766 12.7734 188.936 12.0176 189.276 11.3027C189.628 10.5879 190.132 9.95508 190.788 9.4043C191.456 8.85352 192.265 8.41992 193.214 8.10352C194.175 7.78711 195.265 7.62891 196.483 7.62891C198.159 7.62891 199.606 7.89258 200.825 8.41992C202.044 8.93555 202.981 9.66211 203.638 10.5996C204.294 11.5254 204.622 12.5859 204.622 13.7812H199.138C199.138 13.2891 199.044 12.8613 198.856 12.498C198.669 12.1348 198.382 11.8535 197.995 11.6543C197.608 11.4434 197.099 11.3379 196.466 11.3379C195.974 11.3379 195.54 11.4258 195.165 11.6016C194.802 11.7656 194.515 11.9941 194.304 12.2871C194.104 12.5801 194.005 12.9199 194.005 13.3066C194.005 13.5762 194.063 13.8223 194.181 14.0449C194.309 14.2559 194.503 14.4551 194.761 14.6426C195.03 14.8184 195.376 14.9766 195.798 15.1172C196.231 15.2578 196.759 15.3926 197.38 15.5215C198.704 15.7676 199.911 16.1133 201.001 16.5586C202.102 17.0039 202.981 17.6191 203.638 18.4043C204.306 19.1895 204.64 20.2266 204.64 21.5156C204.64 22.3594 204.446 23.1328 204.059 23.8359C203.684 24.5391 203.14 25.1543 202.425 25.6816C201.71 26.209 200.854 26.6191 199.858 26.9121C198.862 27.2051 197.737 27.3516 196.483 27.3516C194.69 27.3516 193.173 27.0293 191.931 26.3848C190.688 25.7402 189.751 24.9316 189.118 23.959C188.497 22.9746 188.186 21.9668 188.186 20.9355H193.337C193.36 21.5684 193.518 22.084 193.811 22.4824C194.116 22.8809 194.509 23.1738 194.989 23.3613C195.47 23.5371 196.009 23.625 196.606 23.625C197.204 23.625 197.702 23.543 198.1 23.3789C198.499 23.2148 198.804 22.9922 199.015 22.7109C199.225 22.418 199.331 22.084 199.331 21.709Z" fill="#E1E1E6"/>
<path d="M112.397 24.3984C112.397 23.6016 112.678 22.9336 113.241 22.3945C113.815 21.8555 114.559 21.5859 115.473 21.5859C116.399 21.5859 117.137 21.8555 117.688 22.3945C118.251 22.9336 118.532 23.6016 118.532 24.3984C118.532 25.1836 118.251 25.8457 117.688 26.3848C117.137 26.9238 116.399 27.1934 115.473 27.1934C114.559 27.1934 113.815 26.9238 113.241 26.3848C112.678 25.8457 112.397 25.1836 112.397 24.3984Z" fill="#FE6701"/>
</svg>
